<mxfile host="app.diagrams.net" modified="2024-05-20T10:10:06.025Z" agent="Mozilla/5.0 (X11; Ubuntu; Linux x86_64; rv:109.0) Gecko/20100101 Firefox/110.0" etag="krnspUCO_4eUDtbzw_EJ" version="24.4.4" type="device">
  <diagram name="Page-1" id="c7488fd3-1785-93aa-aadb-54a6760d102a">
    <mxGraphModel dx="6447" dy="3500" grid="1" gridSize="10" guides="1" tooltips="1" connect="1" arrows="1" fold="1" page="1" pageScale="1" pageWidth="1100" pageHeight="850" background="none" math="0" shadow="0">
      <root>
        <mxCell id="0" />
        <mxCell id="1" parent="0" />
        <mxCell id="SiHA6oWJjxLBhAamfvWC-15" value="&amp;nbsp;" style="text;whiteSpace=wrap;html=1;" vertex="1" parent="1">
          <mxGeometry x="560" y="60" width="40" height="40" as="geometry" />
        </mxCell>
        <mxCell id="SiHA6oWJjxLBhAamfvWC-62" value="" style="edgeStyle=orthogonalEdgeStyle;rounded=0;orthogonalLoop=1;jettySize=auto;html=1;" edge="1" parent="1" source="SiHA6oWJjxLBhAamfvWC-16" target="SiHA6oWJjxLBhAamfvWC-17">
          <mxGeometry relative="1" as="geometry" />
        </mxCell>
        <mxCell id="SiHA6oWJjxLBhAamfvWC-16" value="시작" style="ellipse;whiteSpace=wrap;html=1;" vertex="1" parent="1">
          <mxGeometry x="120" y="-800" width="120" height="80" as="geometry" />
        </mxCell>
        <mxCell id="SiHA6oWJjxLBhAamfvWC-63" value="" style="edgeStyle=orthogonalEdgeStyle;rounded=0;orthogonalLoop=1;jettySize=auto;html=1;" edge="1" parent="1" source="SiHA6oWJjxLBhAamfvWC-17" target="SiHA6oWJjxLBhAamfvWC-18">
          <mxGeometry relative="1" as="geometry" />
        </mxCell>
        <mxCell id="SiHA6oWJjxLBhAamfvWC-17" value="&lt;div&gt;인트로 출력&lt;/div&gt;&lt;div&gt;(로그인, 회원가입)&lt;br&gt;&lt;/div&gt;" style="shape=document;whiteSpace=wrap;html=1;boundedLbl=1;" vertex="1" parent="1">
          <mxGeometry x="120" y="-680" width="120" height="80" as="geometry" />
        </mxCell>
        <mxCell id="SiHA6oWJjxLBhAamfvWC-64" value="" style="edgeStyle=orthogonalEdgeStyle;rounded=0;orthogonalLoop=1;jettySize=auto;html=1;" edge="1" parent="1" source="SiHA6oWJjxLBhAamfvWC-18" target="SiHA6oWJjxLBhAamfvWC-19">
          <mxGeometry relative="1" as="geometry" />
        </mxCell>
        <mxCell id="SiHA6oWJjxLBhAamfvWC-18" value="선택 입력" style="shape=parallelogram;perimeter=parallelogramPerimeter;whiteSpace=wrap;html=1;fixedSize=1;" vertex="1" parent="1">
          <mxGeometry x="120" y="-560" width="120" height="60" as="geometry" />
        </mxCell>
        <mxCell id="SiHA6oWJjxLBhAamfvWC-65" style="edgeStyle=orthogonalEdgeStyle;rounded=0;orthogonalLoop=1;jettySize=auto;html=1;entryX=0.5;entryY=0;entryDx=0;entryDy=0;" edge="1" parent="1" source="SiHA6oWJjxLBhAamfvWC-19" target="SiHA6oWJjxLBhAamfvWC-48">
          <mxGeometry relative="1" as="geometry">
            <Array as="points">
              <mxPoint x="180" y="-350" />
              <mxPoint x="-60" y="-350" />
            </Array>
          </mxGeometry>
        </mxCell>
        <mxCell id="SiHA6oWJjxLBhAamfvWC-66" style="edgeStyle=orthogonalEdgeStyle;rounded=0;orthogonalLoop=1;jettySize=auto;html=1;entryX=0.5;entryY=0;entryDx=0;entryDy=0;" edge="1" parent="1" source="SiHA6oWJjxLBhAamfvWC-19" target="SiHA6oWJjxLBhAamfvWC-49">
          <mxGeometry relative="1" as="geometry" />
        </mxCell>
        <mxCell id="SiHA6oWJjxLBhAamfvWC-19" value="선택 판단" style="rhombus;whiteSpace=wrap;html=1;" vertex="1" parent="1">
          <mxGeometry x="120" y="-460" width="120" height="80" as="geometry" />
        </mxCell>
        <mxCell id="SiHA6oWJjxLBhAamfvWC-68" value="" style="edgeStyle=orthogonalEdgeStyle;rounded=0;orthogonalLoop=1;jettySize=auto;html=1;" edge="1" parent="1" source="SiHA6oWJjxLBhAamfvWC-21" target="SiHA6oWJjxLBhAamfvWC-30">
          <mxGeometry relative="1" as="geometry" />
        </mxCell>
        <mxCell id="SiHA6oWJjxLBhAamfvWC-21" value="&lt;div&gt;회원가입&lt;/div&gt;&lt;div&gt;정보 입력&lt;br&gt;&lt;/div&gt;" style="shape=parallelogram;perimeter=parallelogramPerimeter;whiteSpace=wrap;html=1;fixedSize=1;" vertex="1" parent="1">
          <mxGeometry x="-120" y="-200" width="120" height="60" as="geometry" />
        </mxCell>
        <mxCell id="SiHA6oWJjxLBhAamfvWC-77" style="edgeStyle=orthogonalEdgeStyle;rounded=0;orthogonalLoop=1;jettySize=auto;html=1;entryX=0.5;entryY=0;entryDx=0;entryDy=0;" edge="1" parent="1" source="SiHA6oWJjxLBhAamfvWC-27" target="SiHA6oWJjxLBhAamfvWC-29">
          <mxGeometry relative="1" as="geometry" />
        </mxCell>
        <mxCell id="SiHA6oWJjxLBhAamfvWC-78" style="edgeStyle=orthogonalEdgeStyle;rounded=0;orthogonalLoop=1;jettySize=auto;html=1;entryX=0.5;entryY=0;entryDx=0;entryDy=0;" edge="1" parent="1" source="SiHA6oWJjxLBhAamfvWC-27" target="SiHA6oWJjxLBhAamfvWC-28">
          <mxGeometry relative="1" as="geometry" />
        </mxCell>
        <mxCell id="SiHA6oWJjxLBhAamfvWC-27" value="&lt;div&gt;회원가입&lt;/div&gt;&lt;div&gt;성공판단&lt;br&gt;&lt;/div&gt;" style="rhombus;whiteSpace=wrap;html=1;" vertex="1" parent="1">
          <mxGeometry x="-120" y="20" width="120" height="80" as="geometry" />
        </mxCell>
        <mxCell id="SiHA6oWJjxLBhAamfvWC-82" style="edgeStyle=orthogonalEdgeStyle;rounded=0;orthogonalLoop=1;jettySize=auto;html=1;entryX=0.5;entryY=0;entryDx=0;entryDy=0;" edge="1" parent="1" source="SiHA6oWJjxLBhAamfvWC-28" target="SiHA6oWJjxLBhAamfvWC-17">
          <mxGeometry relative="1" as="geometry">
            <mxPoint x="60" y="-744.7058823529412" as="targetPoint" />
            <Array as="points">
              <mxPoint x="60" y="240" />
              <mxPoint x="-320" y="240" />
              <mxPoint x="-320" y="-700" />
              <mxPoint x="180" y="-700" />
            </Array>
          </mxGeometry>
        </mxCell>
        <mxCell id="SiHA6oWJjxLBhAamfvWC-28" value="&lt;div&gt;회원가입&lt;/div&gt;&lt;div&gt;성공 안내문&lt;br&gt;&lt;/div&gt;" style="shape=document;whiteSpace=wrap;html=1;boundedLbl=1;" vertex="1" parent="1">
          <mxGeometry y="140" width="120" height="80" as="geometry" />
        </mxCell>
        <mxCell id="SiHA6oWJjxLBhAamfvWC-79" style="edgeStyle=orthogonalEdgeStyle;rounded=0;orthogonalLoop=1;jettySize=auto;html=1;entryX=0.5;entryY=0;entryDx=0;entryDy=0;" edge="1" parent="1" source="SiHA6oWJjxLBhAamfvWC-29" target="SiHA6oWJjxLBhAamfvWC-48">
          <mxGeometry relative="1" as="geometry">
            <Array as="points">
              <mxPoint x="-280" y="180" />
              <mxPoint x="-280" y="-340" />
              <mxPoint x="-60" y="-340" />
            </Array>
          </mxGeometry>
        </mxCell>
        <mxCell id="SiHA6oWJjxLBhAamfvWC-29" value="&lt;div&gt;회원가입&lt;/div&gt;&lt;div&gt;실패 안내문&lt;br&gt;&lt;/div&gt;" style="shape=document;whiteSpace=wrap;html=1;boundedLbl=1;" vertex="1" parent="1">
          <mxGeometry x="-240" y="140" width="120" height="80" as="geometry" />
        </mxCell>
        <mxCell id="SiHA6oWJjxLBhAamfvWC-69" value="" style="edgeStyle=orthogonalEdgeStyle;rounded=0;orthogonalLoop=1;jettySize=auto;html=1;" edge="1" parent="1" source="SiHA6oWJjxLBhAamfvWC-30" target="SiHA6oWJjxLBhAamfvWC-27">
          <mxGeometry relative="1" as="geometry" />
        </mxCell>
        <mxCell id="SiHA6oWJjxLBhAamfvWC-30" value="&lt;div&gt;회원 가입&lt;/div&gt;&lt;div&gt;정보 송신&lt;br&gt;&lt;/div&gt;" style="rounded=1;whiteSpace=wrap;html=1;" vertex="1" parent="1">
          <mxGeometry x="-120" y="-100" width="120" height="60" as="geometry" />
        </mxCell>
        <mxCell id="SiHA6oWJjxLBhAamfvWC-33" value="로그인 실패 5회 미만" style="swimlane;whiteSpace=wrap;html=1;" vertex="1" parent="1">
          <mxGeometry x="270" y="-300" width="380" height="340" as="geometry" />
        </mxCell>
        <mxCell id="SiHA6oWJjxLBhAamfvWC-32" value="&lt;div&gt;로그인&lt;/div&gt;&lt;div&gt;정보 송신&lt;br&gt;&lt;/div&gt;" style="rounded=1;whiteSpace=wrap;html=1;" vertex="1" parent="SiHA6oWJjxLBhAamfvWC-33">
          <mxGeometry x="130" y="260" width="120" height="60" as="geometry" />
        </mxCell>
        <mxCell id="SiHA6oWJjxLBhAamfvWC-71" value="" style="edgeStyle=orthogonalEdgeStyle;rounded=0;orthogonalLoop=1;jettySize=auto;html=1;" edge="1" parent="SiHA6oWJjxLBhAamfvWC-33" source="SiHA6oWJjxLBhAamfvWC-20" target="SiHA6oWJjxLBhAamfvWC-32">
          <mxGeometry relative="1" as="geometry" />
        </mxCell>
        <mxCell id="SiHA6oWJjxLBhAamfvWC-20" value="&lt;div&gt;로그인 정보 &lt;br&gt;&lt;/div&gt;&lt;div&gt;입력&lt;br&gt;&lt;/div&gt;" style="shape=parallelogram;perimeter=parallelogramPerimeter;whiteSpace=wrap;html=1;fixedSize=1;" vertex="1" parent="SiHA6oWJjxLBhAamfvWC-33">
          <mxGeometry x="130" y="160" width="120" height="60" as="geometry" />
        </mxCell>
        <mxCell id="SiHA6oWJjxLBhAamfvWC-70" value="" style="edgeStyle=orthogonalEdgeStyle;rounded=0;orthogonalLoop=1;jettySize=auto;html=1;" edge="1" parent="SiHA6oWJjxLBhAamfvWC-33" source="SiHA6oWJjxLBhAamfvWC-46" target="SiHA6oWJjxLBhAamfvWC-20">
          <mxGeometry relative="1" as="geometry" />
        </mxCell>
        <mxCell id="SiHA6oWJjxLBhAamfvWC-46" value="&lt;div&gt;로그인&lt;/div&gt;&lt;div&gt;유도문&lt;br&gt;&lt;/div&gt;" style="shape=document;whiteSpace=wrap;html=1;boundedLbl=1;" vertex="1" parent="SiHA6oWJjxLBhAamfvWC-33">
          <mxGeometry x="130" y="40" width="120" height="80" as="geometry" />
        </mxCell>
        <mxCell id="SiHA6oWJjxLBhAamfvWC-39" value="로그인 실패 5회 이상" style="swimlane;whiteSpace=wrap;html=1;" vertex="1" parent="1">
          <mxGeometry x="710" y="-300" width="390" height="340" as="geometry" />
        </mxCell>
        <mxCell id="SiHA6oWJjxLBhAamfvWC-73" value="" style="edgeStyle=orthogonalEdgeStyle;rounded=0;orthogonalLoop=1;jettySize=auto;html=1;" edge="1" parent="SiHA6oWJjxLBhAamfvWC-39" source="SiHA6oWJjxLBhAamfvWC-34" target="SiHA6oWJjxLBhAamfvWC-35">
          <mxGeometry relative="1" as="geometry" />
        </mxCell>
        <mxCell id="SiHA6oWJjxLBhAamfvWC-34" value="&lt;div&gt;로그인 정보&lt;/div&gt;&lt;div&gt;고유 번호&lt;br&gt;&lt;/div&gt;&lt;div&gt;입력&lt;br&gt;&lt;/div&gt;" style="shape=parallelogram;perimeter=parallelogramPerimeter;whiteSpace=wrap;html=1;fixedSize=1;" vertex="1" parent="SiHA6oWJjxLBhAamfvWC-39">
          <mxGeometry x="135" y="160" width="120" height="60" as="geometry" />
        </mxCell>
        <mxCell id="SiHA6oWJjxLBhAamfvWC-35" value="&lt;div&gt;로그인&lt;/div&gt;&lt;div&gt;고유번호&lt;br&gt;&lt;/div&gt;&lt;div&gt;정보 송신&lt;br&gt;&lt;/div&gt;" style="rounded=1;whiteSpace=wrap;html=1;" vertex="1" parent="SiHA6oWJjxLBhAamfvWC-39">
          <mxGeometry x="135" y="260" width="120" height="60" as="geometry" />
        </mxCell>
        <mxCell id="SiHA6oWJjxLBhAamfvWC-72" value="" style="edgeStyle=orthogonalEdgeStyle;rounded=0;orthogonalLoop=1;jettySize=auto;html=1;" edge="1" parent="SiHA6oWJjxLBhAamfvWC-39" source="SiHA6oWJjxLBhAamfvWC-47" target="SiHA6oWJjxLBhAamfvWC-34">
          <mxGeometry relative="1" as="geometry" />
        </mxCell>
        <mxCell id="SiHA6oWJjxLBhAamfvWC-47" value="&lt;div&gt;특수 로그인&lt;/div&gt;&lt;div&gt;유도문&lt;br&gt;&lt;/div&gt;" style="shape=document;whiteSpace=wrap;html=1;boundedLbl=1;" vertex="1" parent="SiHA6oWJjxLBhAamfvWC-39">
          <mxGeometry x="135" y="40" width="120" height="80" as="geometry" />
        </mxCell>
        <mxCell id="SiHA6oWJjxLBhAamfvWC-67" value="" style="edgeStyle=orthogonalEdgeStyle;rounded=0;orthogonalLoop=1;jettySize=auto;html=1;" edge="1" parent="1" source="SiHA6oWJjxLBhAamfvWC-48" target="SiHA6oWJjxLBhAamfvWC-21">
          <mxGeometry relative="1" as="geometry" />
        </mxCell>
        <mxCell id="SiHA6oWJjxLBhAamfvWC-48" value="&lt;div&gt;회원가입&lt;/div&gt;&lt;div&gt;유도문&lt;br&gt;&lt;/div&gt;" style="shape=document;whiteSpace=wrap;html=1;boundedLbl=1;" vertex="1" parent="1">
          <mxGeometry x="-120" y="-320" width="120" height="80" as="geometry" />
        </mxCell>
        <mxCell id="SiHA6oWJjxLBhAamfvWC-75" style="edgeStyle=orthogonalEdgeStyle;rounded=0;orthogonalLoop=1;jettySize=auto;html=1;entryX=0.5;entryY=0;entryDx=0;entryDy=0;" edge="1" parent="1" source="SiHA6oWJjxLBhAamfvWC-23" target="SiHA6oWJjxLBhAamfvWC-25">
          <mxGeometry relative="1" as="geometry" />
        </mxCell>
        <mxCell id="SiHA6oWJjxLBhAamfvWC-76" style="edgeStyle=orthogonalEdgeStyle;rounded=0;orthogonalLoop=1;jettySize=auto;html=1;entryX=0.5;entryY=0;entryDx=0;entryDy=0;" edge="1" parent="1" source="SiHA6oWJjxLBhAamfvWC-23" target="SiHA6oWJjxLBhAamfvWC-24">
          <mxGeometry relative="1" as="geometry" />
        </mxCell>
        <mxCell id="SiHA6oWJjxLBhAamfvWC-23" value="&lt;div&gt;로그인&lt;/div&gt;&lt;div&gt;성공판단&lt;br&gt;&lt;/div&gt;" style="rhombus;whiteSpace=wrap;html=1;" vertex="1" parent="1">
          <mxGeometry x="620" y="80" width="120" height="80" as="geometry" />
        </mxCell>
        <mxCell id="SiHA6oWJjxLBhAamfvWC-84" value="" style="edgeStyle=orthogonalEdgeStyle;rounded=0;orthogonalLoop=1;jettySize=auto;html=1;" edge="1" parent="1" source="SiHA6oWJjxLBhAamfvWC-25" target="SiHA6oWJjxLBhAamfvWC-83">
          <mxGeometry relative="1" as="geometry" />
        </mxCell>
        <mxCell id="SiHA6oWJjxLBhAamfvWC-25" value="&lt;div&gt;로그인 성공&lt;/div&gt;&lt;div&gt;안내문&lt;br&gt;&lt;/div&gt;" style="shape=document;whiteSpace=wrap;html=1;boundedLbl=1;" vertex="1" parent="1">
          <mxGeometry x="500" y="200" width="120" height="80" as="geometry" />
        </mxCell>
        <mxCell id="SiHA6oWJjxLBhAamfvWC-81" style="edgeStyle=orthogonalEdgeStyle;rounded=0;orthogonalLoop=1;jettySize=auto;html=1;entryX=0.5;entryY=0;entryDx=0;entryDy=0;" edge="1" parent="1" source="SiHA6oWJjxLBhAamfvWC-24" target="SiHA6oWJjxLBhAamfvWC-49">
          <mxGeometry relative="1" as="geometry">
            <Array as="points">
              <mxPoint x="800" y="300" />
              <mxPoint x="1140" y="300" />
              <mxPoint x="1140" y="-340" />
              <mxPoint x="680" y="-340" />
            </Array>
          </mxGeometry>
        </mxCell>
        <mxCell id="SiHA6oWJjxLBhAamfvWC-24" value="&lt;div&gt;로그인 실패&lt;/div&gt;&lt;div&gt;안내문&lt;br&gt;&lt;/div&gt;" style="shape=document;whiteSpace=wrap;html=1;boundedLbl=1;" vertex="1" parent="1">
          <mxGeometry x="740" y="200" width="120" height="80" as="geometry" />
        </mxCell>
        <mxCell id="SiHA6oWJjxLBhAamfvWC-74" style="edgeStyle=orthogonalEdgeStyle;rounded=0;orthogonalLoop=1;jettySize=auto;html=1;exitX=0.5;exitY=1;exitDx=0;exitDy=0;entryX=0.5;entryY=0;entryDx=0;entryDy=0;" edge="1" parent="1" source="SiHA6oWJjxLBhAamfvWC-49" target="SiHA6oWJjxLBhAamfvWC-23">
          <mxGeometry relative="1" as="geometry" />
        </mxCell>
        <mxCell id="SiHA6oWJjxLBhAamfvWC-49" value="" style="swimlane;horizontal=0;whiteSpace=wrap;html=1;" vertex="1" parent="1">
          <mxGeometry x="240" y="-320" width="880" height="370" as="geometry">
            <mxRectangle x="200" y="-360" width="50" height="40" as="alternateBounds" />
          </mxGeometry>
        </mxCell>
        <mxCell id="SiHA6oWJjxLBhAamfvWC-90" value="" style="edgeStyle=orthogonalEdgeStyle;rounded=0;orthogonalLoop=1;jettySize=auto;html=1;" edge="1" parent="1" source="SiHA6oWJjxLBhAamfvWC-83" target="SiHA6oWJjxLBhAamfvWC-85">
          <mxGeometry relative="1" as="geometry" />
        </mxCell>
        <mxCell id="SiHA6oWJjxLBhAamfvWC-83" value="&lt;div&gt;채팅기능 안내문&lt;/div&gt;&lt;div&gt;(친구목록, 친구상태&lt;br&gt;&lt;/div&gt;&lt;div&gt;채팅, 로그아웃)&lt;br&gt;&lt;/div&gt;" style="shape=document;whiteSpace=wrap;html=1;boundedLbl=1;" vertex="1" parent="1">
          <mxGeometry x="500" y="320" width="120" height="80" as="geometry" />
        </mxCell>
        <mxCell id="SiHA6oWJjxLBhAamfvWC-89" value="" style="edgeStyle=orthogonalEdgeStyle;rounded=0;orthogonalLoop=1;jettySize=auto;html=1;" edge="1" parent="1" source="SiHA6oWJjxLBhAamfvWC-85" target="SiHA6oWJjxLBhAamfvWC-88">
          <mxGeometry relative="1" as="geometry" />
        </mxCell>
        <mxCell id="SiHA6oWJjxLBhAamfvWC-85" value="&lt;div&gt;선택입력&lt;/div&gt;&lt;div&gt;(친구관리,&lt;/div&gt;&lt;div&gt;채팅, 로그아웃)&lt;br&gt;&lt;/div&gt;" style="shape=parallelogram;perimeter=parallelogramPerimeter;whiteSpace=wrap;html=1;fixedSize=1;" vertex="1" parent="1">
          <mxGeometry x="500" y="440" width="120" height="60" as="geometry" />
        </mxCell>
        <mxCell id="SiHA6oWJjxLBhAamfvWC-94" value="" style="edgeStyle=orthogonalEdgeStyle;rounded=0;orthogonalLoop=1;jettySize=auto;html=1;" edge="1" parent="1" source="SiHA6oWJjxLBhAamfvWC-88" target="SiHA6oWJjxLBhAamfvWC-92">
          <mxGeometry relative="1" as="geometry" />
        </mxCell>
        <mxCell id="SiHA6oWJjxLBhAamfvWC-98" style="edgeStyle=orthogonalEdgeStyle;rounded=0;orthogonalLoop=1;jettySize=auto;html=1;entryX=0.5;entryY=0;entryDx=0;entryDy=0;" edge="1" parent="1" source="SiHA6oWJjxLBhAamfvWC-88" target="SiHA6oWJjxLBhAamfvWC-97">
          <mxGeometry relative="1" as="geometry">
            <Array as="points">
              <mxPoint x="560" y="660" />
              <mxPoint x="330" y="660" />
            </Array>
          </mxGeometry>
        </mxCell>
        <mxCell id="SiHA6oWJjxLBhAamfvWC-99" style="edgeStyle=orthogonalEdgeStyle;rounded=0;orthogonalLoop=1;jettySize=auto;html=1;entryX=0.5;entryY=0;entryDx=0;entryDy=0;" edge="1" parent="1" source="SiHA6oWJjxLBhAamfvWC-88" target="SiHA6oWJjxLBhAamfvWC-93">
          <mxGeometry relative="1" as="geometry">
            <Array as="points">
              <mxPoint x="560" y="660" />
              <mxPoint x="780" y="660" />
            </Array>
          </mxGeometry>
        </mxCell>
        <mxCell id="SiHA6oWJjxLBhAamfvWC-88" value="선택판단" style="rhombus;whiteSpace=wrap;html=1;" vertex="1" parent="1">
          <mxGeometry x="500" y="540" width="120" height="80" as="geometry" />
        </mxCell>
        <mxCell id="SiHA6oWJjxLBhAamfvWC-106" value="" style="edgeStyle=orthogonalEdgeStyle;rounded=0;orthogonalLoop=1;jettySize=auto;html=1;" edge="1" parent="1" source="SiHA6oWJjxLBhAamfvWC-92" target="SiHA6oWJjxLBhAamfvWC-104">
          <mxGeometry relative="1" as="geometry" />
        </mxCell>
        <mxCell id="SiHA6oWJjxLBhAamfvWC-92" value="로그아웃 확인문" style="shape=document;whiteSpace=wrap;html=1;boundedLbl=1;" vertex="1" parent="1">
          <mxGeometry x="500" y="700" width="120" height="80" as="geometry" />
        </mxCell>
        <mxCell id="SiHA6oWJjxLBhAamfvWC-107" value="" style="edgeStyle=orthogonalEdgeStyle;rounded=0;orthogonalLoop=1;jettySize=auto;html=1;" edge="1" parent="1" source="SiHA6oWJjxLBhAamfvWC-93" target="SiHA6oWJjxLBhAamfvWC-103">
          <mxGeometry relative="1" as="geometry" />
        </mxCell>
        <mxCell id="SiHA6oWJjxLBhAamfvWC-93" value="&lt;div&gt;채팅 유도문&lt;/div&gt;&lt;div&gt;(채팅할 친구선택)&lt;br&gt;&lt;/div&gt;" style="shape=document;whiteSpace=wrap;html=1;boundedLbl=1;" vertex="1" parent="1">
          <mxGeometry x="720" y="700" width="120" height="80" as="geometry" />
        </mxCell>
        <mxCell id="SiHA6oWJjxLBhAamfvWC-109" value="" style="edgeStyle=orthogonalEdgeStyle;rounded=0;orthogonalLoop=1;jettySize=auto;html=1;" edge="1" parent="1" source="SiHA6oWJjxLBhAamfvWC-97" target="SiHA6oWJjxLBhAamfvWC-100">
          <mxGeometry relative="1" as="geometry" />
        </mxCell>
        <mxCell id="SiHA6oWJjxLBhAamfvWC-97" value="&lt;div&gt;친구관리 유도문&lt;/div&gt;&lt;div&gt;(친구추가, 삭제)&lt;br&gt;&lt;/div&gt;" style="shape=document;whiteSpace=wrap;html=1;boundedLbl=1;" vertex="1" parent="1">
          <mxGeometry x="270" y="700" width="120" height="80" as="geometry" />
        </mxCell>
        <mxCell id="SiHA6oWJjxLBhAamfvWC-110" value="" style="edgeStyle=orthogonalEdgeStyle;rounded=0;orthogonalLoop=1;jettySize=auto;html=1;" edge="1" parent="1" source="SiHA6oWJjxLBhAamfvWC-100" target="SiHA6oWJjxLBhAamfvWC-101">
          <mxGeometry relative="1" as="geometry" />
        </mxCell>
        <mxCell id="SiHA6oWJjxLBhAamfvWC-100" value="선택입력" style="shape=parallelogram;perimeter=parallelogramPerimeter;whiteSpace=wrap;html=1;fixedSize=1;" vertex="1" parent="1">
          <mxGeometry x="270" y="820" width="120" height="60" as="geometry" />
        </mxCell>
        <mxCell id="SiHA6oWJjxLBhAamfvWC-118" style="edgeStyle=orthogonalEdgeStyle;rounded=0;orthogonalLoop=1;jettySize=auto;html=1;entryX=0.5;entryY=0;entryDx=0;entryDy=0;" edge="1" parent="1" source="SiHA6oWJjxLBhAamfvWC-101" target="SiHA6oWJjxLBhAamfvWC-83">
          <mxGeometry relative="1" as="geometry">
            <Array as="points">
              <mxPoint x="330" y="1020" />
              <mxPoint x="240" y="1020" />
              <mxPoint x="240" y="300" />
              <mxPoint x="560" y="300" />
            </Array>
          </mxGeometry>
        </mxCell>
        <mxCell id="SiHA6oWJjxLBhAamfvWC-101" value="친구추가||삭제" style="rounded=1;whiteSpace=wrap;html=1;" vertex="1" parent="1">
          <mxGeometry x="270" y="920" width="120" height="60" as="geometry" />
        </mxCell>
        <mxCell id="SiHA6oWJjxLBhAamfvWC-102" value="종료" style="ellipse;whiteSpace=wrap;html=1;" vertex="1" parent="1">
          <mxGeometry x="500" y="1020" width="120" height="80" as="geometry" />
        </mxCell>
        <mxCell id="SiHA6oWJjxLBhAamfvWC-111" style="edgeStyle=orthogonalEdgeStyle;rounded=0;orthogonalLoop=1;jettySize=auto;html=1;entryX=0.5;entryY=0;entryDx=0;entryDy=0;" edge="1" parent="1" source="SiHA6oWJjxLBhAamfvWC-103" target="SiHA6oWJjxLBhAamfvWC-108">
          <mxGeometry relative="1" as="geometry" />
        </mxCell>
        <mxCell id="SiHA6oWJjxLBhAamfvWC-103" value="친구 입력" style="shape=parallelogram;perimeter=parallelogramPerimeter;whiteSpace=wrap;html=1;fixedSize=1;" vertex="1" parent="1">
          <mxGeometry x="720" y="820" width="120" height="60" as="geometry" />
        </mxCell>
        <mxCell id="SiHA6oWJjxLBhAamfvWC-105" style="edgeStyle=orthogonalEdgeStyle;rounded=0;orthogonalLoop=1;jettySize=auto;html=1;entryX=0.5;entryY=0;entryDx=0;entryDy=0;" edge="1" parent="1" source="SiHA6oWJjxLBhAamfvWC-104" target="SiHA6oWJjxLBhAamfvWC-102">
          <mxGeometry relative="1" as="geometry" />
        </mxCell>
        <mxCell id="SiHA6oWJjxLBhAamfvWC-104" value="확인" style="shape=parallelogram;perimeter=parallelogramPerimeter;whiteSpace=wrap;html=1;fixedSize=1;" vertex="1" parent="1">
          <mxGeometry x="500" y="820" width="120" height="60" as="geometry" />
        </mxCell>
        <mxCell id="SiHA6oWJjxLBhAamfvWC-108" value="채팅" style="swimlane;whiteSpace=wrap;html=1;" vertex="1" parent="1">
          <mxGeometry x="680" y="920" width="200" height="320" as="geometry" />
        </mxCell>
        <mxCell id="SiHA6oWJjxLBhAamfvWC-116" value="" style="edgeStyle=orthogonalEdgeStyle;rounded=0;orthogonalLoop=1;jettySize=auto;html=1;" edge="1" parent="SiHA6oWJjxLBhAamfvWC-108" source="SiHA6oWJjxLBhAamfvWC-112" target="SiHA6oWJjxLBhAamfvWC-113">
          <mxGeometry relative="1" as="geometry" />
        </mxCell>
        <mxCell id="SiHA6oWJjxLBhAamfvWC-112" value="채팅 내용 출력" style="shape=document;whiteSpace=wrap;html=1;boundedLbl=1;" vertex="1" parent="SiHA6oWJjxLBhAamfvWC-108">
          <mxGeometry x="40" y="70" width="120" height="80" as="geometry" />
        </mxCell>
        <mxCell id="SiHA6oWJjxLBhAamfvWC-115" style="edgeStyle=orthogonalEdgeStyle;rounded=0;orthogonalLoop=1;jettySize=auto;html=1;entryX=0.5;entryY=0;entryDx=0;entryDy=0;" edge="1" parent="SiHA6oWJjxLBhAamfvWC-108" source="SiHA6oWJjxLBhAamfvWC-113" target="SiHA6oWJjxLBhAamfvWC-112">
          <mxGeometry relative="1" as="geometry">
            <Array as="points">
              <mxPoint x="100" y="280" />
              <mxPoint x="20" y="280" />
              <mxPoint x="20" y="50" />
              <mxPoint x="100" y="50" />
            </Array>
          </mxGeometry>
        </mxCell>
        <mxCell id="SiHA6oWJjxLBhAamfvWC-113" value="종료판단" style="rhombus;whiteSpace=wrap;html=1;" vertex="1" parent="SiHA6oWJjxLBhAamfvWC-108">
          <mxGeometry x="40" y="180" width="120" height="80" as="geometry" />
        </mxCell>
        <mxCell id="SiHA6oWJjxLBhAamfvWC-117" style="edgeStyle=orthogonalEdgeStyle;rounded=0;orthogonalLoop=1;jettySize=auto;html=1;entryX=0.5;entryY=0;entryDx=0;entryDy=0;" edge="1" parent="1" source="SiHA6oWJjxLBhAamfvWC-113" target="SiHA6oWJjxLBhAamfvWC-83">
          <mxGeometry relative="1" as="geometry">
            <mxPoint x="1000" y="410" as="targetPoint" />
            <Array as="points">
              <mxPoint x="780" y="1260" />
              <mxPoint x="940" y="1260" />
              <mxPoint x="940" y="300" />
              <mxPoint x="560" y="300" />
            </Array>
          </mxGeometry>
        </mxCell>
      </root>
    </mxGraphModel>
  </diagram>
</mxfile>
